<svg height="960" width="600" version="1.1" xmlns="http://www.w3.org/2000/svg">
<path d="M47.6487 52.3958C26.6673 47.3125 21.3486 43.1042 21.3486 32.7708C21.3486 22.7812 30.1712 15.25 46.0541 15.25C62.8393 15.25 73.4139 24.5417 74.4734 41.875L91.5942 39.25C91.269 15.0625 73.5922 0 47.8271 0C20.824 0 3.34653 13.1458 3.34653 34.375C3.34653 53.8333 12.1692 63.2917 46.4108 70.6458C67.3922 75.3854 74.8196 79.7604 74.8196 91.3333C74.8196 102.906 64.0562 109.375 48.6978 109.375C30.3496 109.375 18.1804 99.5521 17.1103 83.0729L0 86.0417C2.09814 110.583 21.5269 125 47.6487 125C74.6518 125 93 111.458 93 90.4688C93 69.0417 82.4149 60.9792 47.6487 52.3958Z"></path><path d="M130.658 67.7498H192.116V52.2408H130.658V16.3329H195.297V1H113V123H196V107.657H130.658V67.7498V67.7498Z"></path><path d="M238.656 67.7498H300.116V52.2408H238.656V16.3329H303.286V1H221V123H304V107.657H238.656V67.7498V67.7498Z"></path><path d="M0 168.355H37.9448V275H55.5902V168.355H93V153H0V168.355V168.355Z"></path><path d="M178.342 204.411H130.658V153H113V275H130.658V219.756H178.342V275H196V153H178.342V204.411V204.411Z"></path><path d="M253.404 153H221V168.355H253.404V259.635H221V275H253.94H271.596H304V259.635H271.596V168.355H304V153H271.06H253.404V153Z"></path><path d="M342.654 16.3329H397.346V123H414V1H402.345V1H334.52V1H326V123H342.654V16.3329V16.3329Z"></path><path d="M371.649 203.405C350.667 198.32 345.349 194.111 345.349 183.776C345.349 173.785 354.171 166.253 370.054 166.253C386.839 166.253 397.414 175.546 398.473 192.882L415.594 190.257C415.227 166.065 397.582 151 371.817 151C344.824 151 327.347 164.138 327.347 185.381C327.347 204.842 336.169 214.302 370.411 221.658C391.392 226.388 398.82 230.774 398.82 242.349C398.82 253.923 388.056 260.404 372.698 260.404C354.35 260.404 342.18 250.579 341.11 234.097L324 237.077C326.098 261.623 345.527 276 371.649 276C398.652 276 417 262.456 417 241.463C417 220.053 406.404 211.989 371.649 203.405Z"></path>
</svg>
