<svg width="960" height="600" version="1.1" xmlns="http://www.w3.org/2000/svg"><g></g><g transform="translate(480,300)scale(1.1538461446762085,1.1538461446762085)"><text text-anchor="middle" transform="translate(182,115)rotate(30.00000044529205)scale(0.9999999865388264,0.9999999865388264)" style="font-size: 100px; font-family: Impact; fill: rgb(156, 158, 222);">test</text><text text-anchor="middle" transform="translate(-167,-47)rotate(-59.99999955470795)scale(0.9999999865388264,0.9999999865388264)" style="font-size: 10px; font-family: Impact; fill: rgb(82, 84, 163);"></text><text text-anchor="middle" transform="translate(51,67)rotate(-30.00000044529205)scale(0.9999999865388264,0.9999999865388264)" style="font-size: 92px; font-family: Impact; fill: rgb(107, 110, 207);">unit</text><text text-anchor="middle" transform="translate(185,-113)rotate(-30.000000445292052)scale(0.9999999865388264,0.9999999865388264)" style="font-size: 92px; font-family: Impact; fill: rgb(156, 158, 222);">tdd</text><text text-anchor="middle" transform="translate(254,24)rotate(59.99999955470795)scale(0.9999999865388264,0.9999999865388264)" style="font-size: 62px; font-family: Impact; fill: rgb(99, 121, 57);">integration</text><text text-anchor="middle" transform="translate(176,-28)rotate(-59.99999955470795)scale(0.9999999865388264,0.9999999865388264)" style="font-size: 62px; font-family: Impact; fill: rgb(140, 162, 82);">e2e</text><text text-anchor="middle" transform="translate(48,-126)rotate(-30.00000044529205)scale(0.9999999865388264,0.9999999865388264)" style="font-size: 51px; font-family: Impact; fill: rgb(181, 207, 107);">component</text><text text-anchor="middle" transform="translate(66,-66)rotate(-59.99999955470795)scale(0.9999999865388264,0.9999999865388264)" style="font-size: 51px; font-family: Impact; fill: rgb(206, 219, 156);">stress</text><text text-anchor="middle" transform="translate(-42,138)rotate(0)scale(1,1)" style="font-size: 51px; font-family: Impact; fill: rgb(140, 109, 49);">performance</text><text text-anchor="middle" transform="translate(-239,-29)rotate(-59.99999955470795)scale(0.9999999865388264,0.9999999865388264)" style="font-size: 36px; font-family: Impact; fill: rgb(189, 158, 57);">acceptance</text><text text-anchor="middle" transform="translate(-172,87)rotate(-59.99999955470795)scale(0.9999999865388264,0.9999999865388264)" style="font-size: 62px; font-family: Impact; fill: rgb(231, 186, 82);">ci</text><text text-anchor="middle" transform="translate(-76,-45)rotate(30.00000044529205)scale(0.9999999865388264,0.9999999865388264)" style="font-size: 36px; font-family: Impact; fill: rgb(231, 203, 148);">automatic</text><text text-anchor="middle" transform="translate(-291,76)rotate(30.00000044529205)scale(0.9999999865388264,0.9999999865388264)" style="font-size: 36px; font-family: Impact; fill: rgb(132, 60, 57);">manual</text><text text-anchor="middle" transform="translate(162,144)rotate(-59.99999955470795)scale(0.9999999865388264,0.9999999865388264)" style="font-size: 62px; font-family: Impact; fill: rgb(173, 73, 74);">cd</text><text text-anchor="middle" transform="translate(-113,-108)rotate(30.00000044529205)scale(0.9999999865388264,0.9999999865388264)" style="font-size: 51px; font-family: Impact; fill: rgb(214, 97, 107);">bdd</text><text text-anchor="middle" transform="translate(83,96)rotate(0)scale(1,1)" style="font-size: 36px; font-family: Impact; fill: rgb(231, 150, 156);">ddd</text><text text-anchor="middle" transform="translate(-119,50)rotate(0)scale(1,1)" style="font-size: 51px; font-family: Impact; fill: rgb(123, 65, 115);">smoke</text><text text-anchor="middle" transform="translate(293,-117)rotate(-30.00000044529205)scale(0.9999999865388264,0.9999999865388264)" style="font-size: 51px; font-family: Impact; fill: rgb(165, 81, 148);">load</text></g></svg>